<svg viewBox="0 -1 512.00001 512" xmlns="http://www.w3.org/2000/svg"><path d="m256 84.777344 21.152344 21.152344-21.152344 21.152343-21.152344-21.152343zm0 0"/><path d="m121.382812 211.585938c-28.972656 32.816406-44.871093 74.726562-44.871093 118.703124 0 99.519532 80.519531 180.484376 179.488281 180.484376s179.488281-80.964844 179.488281-180.484376c0-23.683593-4.621093-46.765624-13.398437-68.15625l43.503906 45.003907 45.550781-48.808594-30.785156-65.972656v-73.332031l31.640625-13.09375-256-105.929688-256 105.929688 121.382812 50.230468zm134.617188.277343 104.699219-43.324219v48.109376c-65.332031 33.511718-144.0625 33.511718-209.398438 0v-48.109376zm-148.835938 133.386719h44.488282c.734375 15.792969 2.632812 31.191406 5.613281 45.867188h-38.074219c-6.285156-14.269532-10.4375-29.695313-12.027344-45.867188zm28.082032-103.234375c8.375 4.410156 16.980468 8.351563 25.765625 11.8125-5.167969 19.269531-8.335938 40.117187-9.347657 61.503906h-44.488281c2.640625-26.59375 12.3125-51.816406 28.070313-73.316406zm187.285156 21.160156c4.257812 16.339844 6.914062 33.988281 7.859375 52.15625-22.4375 0-38.425781 0-59.433594 0v-43.882812c17.445313-1.015625 34.734375-3.796875 51.574219-8.273438zm-81.488281 52.15625h-59.433594c.945313-18.167969 3.601563-35.816406 7.859375-52.15625 16.839844 4.476563 34.125 7.257813 51.574219 8.273438zm-59.449219 29.917969h59.449219v45.867188h-53.203125c-3.316406-14.476563-5.433594-29.90625-6.246094-45.867188zm59.449219 75.78125v56.449219c-12.839844-5.765625-25.210938-18.730469-35.34375-37.46875-3.214844-5.9375-6.128907-12.289063-8.742188-18.980469zm29.914062 56.449219v-56.457031h44.085938c-2.613281 6.6875-5.527344 13.050781-8.738281 18.988281-10.136719 18.738281-22.507813 31.703125-35.347657 37.46875zm0-86.363281v-45.878907h59.449219c-.816406 15.964844-2.929688 31.402344-6.246094 45.878907zm89.390625-45.878907h44.488282c-1.589844 16.171875-5.742188 31.609375-12.027344 45.878907h-38.074219c2.980469-14.675782 4.875-30.085938 5.613281-45.878907zm-.011718-29.90625c-1.011719-21.386719-4.179688-42.234375-9.347657-61.503906 8.785157-3.460937 17.386719-7.402344 25.765625-11.8125 15.757813 21.5 25.425782 46.722656 28.070313 73.316406zm-223.613282 105.699219h28.464844c3.949219 11.890625 8.695312 23.042969 14.199219 33.214844 1.492187 2.757812 3.03125 5.414062 4.609375 7.980468-18.488282-10.265624-34.597656-24.351562-47.273438-41.195312zm191.28125 41.195312c1.578125-2.566406 3.117188-5.222656 4.609375-7.980468 5.503907-10.171875 10.25-21.332032 14.199219-33.222656h28.464844c-12.675782 16.84375-28.785156 30.9375-47.273438 41.203124zm137.207032-198.527343-10.714844-11.085938 10.667968-22.078125 10.335938 22.144532zm-14.765626-71.449219-30.90625 63.945312c-7.296874-16.085937-17.007812-31.113281-28.921874-44.609374v-55.425782l59.828124-24.757812zm-194.445312-159.875 177.761719 73.554688-177.761719 73.558593-177.761719-73.558593zm0 0"/></svg>