<svg viewBox="0 -72 512.00001 512" xmlns="http://www.w3.org/2000/svg"><path d="m234.84375 105.925781 21.152344-21.15625 21.152344 21.15625-21.152344 21.152344zm0 0"/><path d="m121.382812 264.25c4.496094 1.875 56.464844 37.554688 134.617188 37.554688 77.890625 0 130.371094-35.789063 134.617188-37.554688v-108.089844l60.824218-25.171875v121.144531l-31.375 66.058594 46.527344 48.976563 44.960938-49.042969-30.199219-65.886719v-133.628906l30.644531-12.679687-256-105.929688-256 105.929688 121.382812 50.226562zm344.820313 59.074219-10.308594-10.847657 10.261719-21.601562 9.929688 21.667969zm-105.503906-76.757813c-65.332031 33.507813-144.0625 33.507813-209.398438 0v-78.027344l104.699219 43.324219 104.699219-43.324219zm-104.699219-214.191406 177.761719 73.554688-177.761719 73.558593-177.761719-73.558593zm0 0"/></svg>