<svg viewBox="0 0 512 512" xmlns="http://www.w3.org/2000/svg"><path d="m360.101562 242c8.886719-8.613281 16.25-18.757812 21.65625-30h25.242188c41.355469 0 75-33.644531 75-75v-45c0-33.085938-26.914062-60-60-60-10.925781 0-21.167969 2.949219-30 8.070312v-40.070312h-272v167c0 29.355469 12.113281 55.925781 31.597656 75h-76.597656c-41.355469 0-75 33.644531-75 75 0 16.871094 5.601562 32.457031 15.039062 45h-15.039062v30h15c24.8125 0 45 20.1875 45 45s-20.1875 45-45 45h-15v30h437c41.355469 0 75-33.644531 75-75 0-16.871094-5.601562-32.457031-15.039062-45h15.039062v-30h-15c-24.8125 0-45-20.1875-45-45s20.1875-45 45-45h15v-30zm61.898438-180c16.542969 0 30 13.457031 30 30v45c0 24.8125-20.1875 45-45 45h-16.085938c.710938-4.902344 1.085938-9.90625 1.085938-15v-23.070312c8.832031 5.121093 19.074219 8.070312 30 8.070312v-30c-16.542969 0-30-13.457031-30-30s13.457031-30 30-30zm-60-32v32h-212v-32zm-212 137v-75h212v75c0 41.355469-34.09375 75-76 75h-61c-41.355469 0-75-33.644531-75-75zm332 270c0 24.8125-20.1875 45-45 45h-362.039062c6.5625-8.726562 11.273437-18.921875 13.53125-30h363.507812v-30h-363.507812c-2.257813-11.078125-6.96875-21.273438-13.53125-30h362.039062c24.8125 0 45 20.1875 45 45zm-58.492188-135h-363.507812v30h363.507812c2.257813 11.078125 6.96875 21.273438 13.53125 30h-362.039062c-24.8125 0-45-20.1875-45-45s20.1875-45.011719 45-45.011719h362.039062c-6.5625 8.726563-11.273437 18.933594-13.53125 30.011719zm0 0"/></svg>