<svg viewBox="0 0 512 512" xmlns="http://www.w3.org/2000/svg"><path d="m346 30c-24.695312 0-48.132812 5.960938-69.1875 16.613281-30.375-30.144531-69.296875-46.613281-110.8125-46.613281-91.53125 0-166 80.746094-166 180 0 84.253906 53.664062 155.160156 125.875 174.671875-3.109375 6.109375-4.875 13.015625-4.875 20.328125v45h30v92h30v-92h30v-45c0-7.339844-1.777344-14.269531-4.910156-20.398438 10.042968-2.734374 19.832031-6.492187 29.222656-11.226562 19.777344 19.550781 43.90625 33.945312 70.589844 41.238281-3.125 6.125-4.902344 13.050781-4.902344 20.386719v45h30v62h30v-62h30v-45c0-7.3125-1.765625-14.21875-4.875-20.328125 72.210938-19.511719 125.875-90.417969 125.875-174.671875 0-99.253906-74.46875-180-166-180zm-316 150c0-82.710938 61.007812-150 136-150 31.230469 0 60.75 11.671875 84.660156 33.167969-23.171875 17.957031-41.921875 42.28125-54.109375 70.601562l-29.347656-49.421875-31.617187 53.363282-60.511719 13.640624 40.984375 46.558594-5.730469 61.765625 56.945313-24.589843 16.363281 7.046874c4.773437 28.800782 15.859375 55.234376 31.625 77.542969-15.613281 6.785157-32.371094 10.324219-49.261719 10.324219-74.992188 0-136-67.289062-136-150zm137.261719 22.414062-22.390625 9.667969 2.253906-24.28125-16.113281-18.304687 23.789062-5.363282 12.429688-20.980468 12.453125 20.96875 6.410156 1.4375c-3.203125 13.707031-4.953125 28.035156-5.074219 42.78125zm13.738281 172.585938v15h-30v-15c0-8.269531 6.730469-15 15-15s15 6.730469 15 15zm180 30v15h-30v-15c0-8.269531 6.730469-15 15-15s15 6.730469 15 15zm-15-45c-74.4375 0-135-67.289062-135-150s60.5625-150 135-150c74.992188 0 136 67.289062 136 150s-61.007812 150-136 150zm0 0"/><path d="m347.203125 114.347656-31.617187 53.363282-60.511719 13.640624 40.984375 46.558594-5.730469 61.765625 56.945313-24.589843 56.972656 24.535156-5.789063-61.757813 40.9375-46.601562-60.523437-13.582031zm22.453125 127.710938-22.394531-9.644532-22.390625 9.667969 2.253906-24.28125-16.113281-18.304687 23.789062-5.363282 12.429688-20.980468 12.453125 20.96875 23.792968 5.339844-16.09375 18.320312zm0 0"/></svg>