<svg viewBox="0 0 512 512.00001" xmlns="http://www.w3.org/2000/svg"><path d="m104.980469 181.066406c-24.808594 0-44.992188 20.183594-44.992188 44.992188v74.984375h-14.996093c-24.808594 0-44.992188 20.183593-44.992188 44.992187v165.964844h511.894531v-165.964844c0-24.808594-20.179687-44.992187-44.988281-44.992187h-14.996094v-74.984375c0-19.550782-12.539062-36.222656-29.996094-42.410156v-98.382813l25.910157-10.292969-191.875-74.972656-191.878907 74.972656 85.898438 34.132813v71.960937zm0 29.996094h301.9375c8.269531 0 14.996093 6.726562 14.996093 14.996094v14.996094h-331.933593v-14.996094c0-8.269532 6.730469-14.996094 15-14.996094zm-74.988281 270.945312v-46.035156c12.542968 9.4375 28.125 15.039063 44.992187 15.039063 24.503906 0 46.296875-11.816407 59.988281-30.046875 13.691406 18.230468 35.484375 30.046875 59.988282 30.046875 20.027343 0 38.992187-7.757813 53.402343-21.84375 2.769531-2.707031 5.296875-5.582031 7.585938-8.601563 2.285156 3.019532 4.816406 5.894532 7.585937 8.601563 14.410156 14.085937 33.375 21.84375 53.402344 21.84375 24.5 0 46.292969-11.816407 59.984375-30.046875 13.695313 18.230468 35.488281 30.046875 59.988281 30.046875 16.867188 0 32.449219-5.601563 44.992188-15.039063v46.035156zm451.910156-135.972656v29.992188c0 24.808594-20.183594 44.992187-44.992188 44.992187s-44.988281-20.183593-44.988281-44.992187v-14.996094h-29.996094v14.996094c0 24.808594-20.183593 44.992187-44.988281 44.992187-24.933594 0-45.992188-20.605469-45.992188-44.992187v-14.996094h-29.996093v14.996094c0 24.386718-21.058594 44.992187-45.988281 44.992187-24.808594 0-44.992188-20.183593-44.992188-44.992187v-14.996094h-29.992188v14.996094c0 24.808594-20.183593 44.992187-44.992187 44.992187s-44.992187-20.183593-44.992187-44.992187v-29.992188c0-8.269531 6.730468-15 15-15h421.914062c8.269531 0 14.996094 6.730469 14.996094 15zm-391.921875-44.992187v-29.992188h331.933593v29.992188zm301.941406-119.976563h-29.996094v-71.964844l29.996094-11.917968zm-135.972656-148.863281 110.058593 43.003906-110.058593 43.734375-110.0625-43.734375zm-75.984375 88.816406 75.984375 30.195313 75.984375-30.195313v60.046875h-151.96875zm0 0"/></svg>