<svg viewBox="-23 0 511 512" xmlns="http://www.w3.org/2000/svg"><path d="m42.808594 306.953125c-11.644532 55.949219-26.9375 129.871094-38.628906 187.042969l-3.679688 18.003906h465.167969l-36.34375-204.925781-99.109375-66.074219h-21.136719c19.484375-19.074219 31.597656-45.644531 31.597656-75 0-16.867188 0-122.492188 0-136h30v61h30c0-9.953125 0-80.980469 0-91-9.679687 0-302.027343 0-330 0v30h60v136c0 29.355469 12.109375 55.925781 31.59375 75h-21.160156zm286.351562-30.601563 63.011719 42.007813-141.496094 142.285156v-79.644531zm-108.484375 181.390626-141.160156-139.289063 62.699219-42.066406 78.460937 104.613281zm-155.445312-111.238282 137.316406 135.496094h-165.285156c10.425781-50.859375 21.480469-104.226562 27.96875-135.496094zm364.648437 135.496094h-158.132812l134.199218-134.945312zm-119.203125-452v37.722656c-46.34375 27.476563-103.660156 27.476563-150 0v-37.722656zm-150 136-.003906-64.375c23.78125 11.144531 49.390625 16.71875 75.003906 16.71875 25.609375 0 51.21875-5.574219 75-16.71875v64.375c0 41.355469-33.648437 75-75 75-41.355469 0-75-33.644531-75-75zm135 105-56.25 75h-7.5l-56.25-75zm0 0"/><path d="m235.675781 181c-8.273437 0-15-6.730469-15-15h-30c0 24.8125 20.183594 45 45 45 24.8125 0 45-20.1875 45-45h-30c0 8.269531-6.730469 15-15 15zm0 0"/></svg>