<svg viewBox="-23 0 511 512" xmlns="http://www.w3.org/2000/svg"><path d="m235.675781 181c-8.273437 0-15-6.730469-15-15h-30c0 24.8125 20.183594 45 45 45 24.8125 0 45-20.1875 45-45h-30c0 8.269531-6.730469 15-15 15zm0 0"/><path d="m429.324219 307.074219-26.15625-17.4375c35.152343-17.859375 57.507812-53.875 57.507812-93.636719 0-30.1875-13.015625-58.941406-35.703125-78.886719l-20.308594-17.851562-4.398437 26.679687c-2.390625 14.519532-14.835937 25.058594-29.589844 25.058594-16.542969 0-30-13.457031-30-30 0-13.957031 0-77.316406 0-91h30v61h30c0-9.953125 0-80.980469 0-91-9.679687 0-302.027343 0-330 0v30h60l-.003906 91.039062c-.019531 16.523438-13.46875 29.960938-29.996094 29.960938-14.757812 0-27.203125-10.539062-29.59375-25.058594l-4.398437-26.679687-20.304688 17.851562c-22.691406 19.945313-35.703125 48.699219-35.703125 78.886719 0 25.339844 9.148438 49.8125 25.769531 68.90625 9.023438 10.367188 19.917969 18.769531 31.984376 24.855469l-25.621094 17.1875c-24.839844 119.355469-41.597656 201.601562-42.308594 205.050781h465.167969zm.554687 174.925781h-158.132812l134.199218-134.945312zm-179.203125-101 78.484375-104.648438 63.011719 42.007813-141.496094 142.285156zm-11.25-35h-7.5l-56.25-75h120zm-97.210937-69.613281 78.460937 104.613281v76.742188l-141.160156-139.289063zm228.460937-95.386719c19.875 0 37.660157-9.578125 48.613281-24.714844 7.363282 11.796875 11.386719 25.535156 11.386719 39.714844 0 34.949219-24.703125 65.4375-58.292969 73.113281l-42.167968-28.113281h-21.136719c17.96875-17.589844 29.660156-41.558594 31.371094-68.203125 8.882812 5.203125 19.207031 8.203125 30.226562 8.203125zm-60-15c0 41.355469-33.648437 75-75 75-41.355469 0-75-33.644531-75-75 0-9.949219-.003906-64.375-.003906-64.375 23.78125 11.144531 49.390625 16.71875 75.003906 16.71875 25.609375 0 51.21875-5.574219 75-16.71875zm0-136v37.722656c-46.34375 27.476563-103.660156 27.476563-150 0v-37.722656zm-270 166c0-14.179688 4.019531-27.917969 11.382813-39.714844 10.953125 15.136719 28.738281 24.714844 48.617187 24.714844 11.015625 0 21.339844-3 30.222657-8.203125 1.710937 26.644531 13.40625 50.613281 31.371093 68.203125h-21.160156l-41.964844 28.152344c-33.691406-7.605469-58.46875-38.109375-58.46875-73.152344zm24.554688 150.503906 137.316406 135.496094h-165.285156c10.425781-50.859375 21.480469-104.226562 27.96875-135.496094zm0 0"/></svg>