<svg viewBox="0 0 512 512" xmlns="http://www.w3.org/2000/svg"><path d="m512 89.988281c0-25.289062-.007812-88.589843 0-89.988281 0 0-430.585938 0-512 0v30h61v75c0 16.871094 5.601562 32.457031 15.039062 45h-6.253906c-.125.121094-69.617187 68.621094-69.785156 68.785156v81.214844h181v15c0 16.871094 5.601562 32.457031 15.039062 45h-6.253906l-68.785156 68.785156v83.214844h270v-83.214844l-68.785156-68.785156h-6.257813c9.441407-12.542969 15.042969-28.128906 15.042969-45v-15h181v-81.214844c-8.699219-8.492187-69.628906-68.628906-69.785156-68.785156h-6.257813c9.441407-12.542969 15.042969-28.128906 15.042969-45 0-23.519531 0-51.542969 0-75h31.003906l-.003906 59.988281zm-112.214844 90.011719-23.785156 23.785156-23.785156-23.785156zm-188.785156 90v-30h90v35.335938c-28.734375 11.683593-61.265625 11.683593-90 0zm-51.214844-90-23.785156 23.785156-23.785156-23.785156zm36.214844 6.214844 23.785156 23.785156h-47.570312zm143.785156 23.785156h-47.570312l23.785156-23.785156zm-8.785156 30h30.003906v30h-30.003906zm-89.996094-210-.003906 58.988281h29.988281c0-16.40625.003907-42.589843.003907-58.988281h30.007812v75c0 15.265625 4.59375 29.46875 12.457031 41.328125l-57.457031 57.457031-53.785156-53.785156h-6.257813c9.441407-12.542969 15.042969-28.128906 15.042969-45 0-23.519531 0-51.542969 0-75zm-60.003906 0v35.335938c-28.734375 11.683593-61.265625 11.683593-90 0v-35.335938zm-90 75v-7.828125c14.605469 4.597656 29.800781 6.90625 45 6.90625s30.394531-2.308594 45-6.90625v7.828125c0 24.8125-20.1875 45-45 45s-45-20.1875-45-45zm-61 165v-38.773438c17.664062-17.570312 29.136719-28.4375 45.964844-45.046874l45.035156 45.035156v8.785156h60v30zm249.785156 120-23.785156 23.785156-23.785156-23.785156zm81.214844 92h-210v-40.785156l45-45 60 60 60-60 45 45zm-150-167v-7.828125c14.605469 4.597656 29.800781 6.90625 45 6.90625s30.394531-2.308594 45-6.90625v7.828125c0 24.8125-20.1875 45-45 45s-45-20.1875-45-45zm271-83.773438v38.773438h-91.007812c0-15.304688 0-30.589844.003906-38.789062l45.039062-45.03125c16.773438 16.558593 28.472656 27.648437 45.964844 45.046874zm-151-126.226562v-7.828125c14.605469 4.597656 29.800781 6.90625 45 6.90625s30.394531-2.308594 45-6.90625v7.828125c0 24.8125-20.1875 45-45 45s-45-20.1875-45-45zm90-39.664062c-28.734375 11.683593-61.265625 11.683593-90 0v-35.335938h90zm0 0"/></svg>