<svg viewBox="0 -1 512.00001 512" xmlns="http://www.w3.org/2000/svg"><path d="m512 105.929688-256-105.929688-256 105.929688 121.382812 50.230468v108.089844l7.625 4.289062c39.320313 22.117188 83.40625 33.175782 127.492188 33.175782 44.082031 0 88.167969-11.058594 127.488281-33.175782l7.625-4.289062v-108.503906l59.828125-24.757813v121.144531l-31.375 66.058594 5.636719 5.933594c-57.078125-10.949219-117.257813-2.789062-169.703125 24.492188-77.3125-40.21875-171.433594-38.898438-247.644531 3.96875l-7.625 4.289062v153.980469l22.289062-12.539063c69.59375-39.144531 156.054688-39.144531 225.648438 0l7.332031 4.125 7.335938-4.125c69.589843-39.144531 156.054687-39.144531 225.644531 0l22.292969 12.539063v-153.980469c-5.457032-2.992188-12.183594-7.140625-23.703126-12.585938l23.984376-26.164062-30.195313-65.886719v-133.628906zm-481.355469 355.171874v-86.539062c65.648438-33.683594 144.75-33.664062 210.398438.019531v86.527344c-33.347657-14.6875-69.277344-22.039063-105.199219-22.039063-35.925781 0-71.851562 7.34375-105.199219 22.03125zm450.710938 0c-66.695313-29.375-143.703125-29.355468-210.398438.023438v-86.542969c65.648438-33.683593 144.75-33.703125 210.398438-.019531zm-5.265625-148.558593-9.886719 10.78125-10.308594-10.847657 10.261719-21.601562zm-114.390625-65.976563c-65.648438 33.683594-144.753907 33.683594-210.398438 0v-78.027344l104.699219 43.324219 105.699219-43.738281zm-105.699219-67.078125-177.761719-73.558593 177.761719-73.554688 177.761719 73.554688zm0 0"/><path d="m256 127.085938-21.152344-21.152344 21.152344-21.152344 21.152344 21.152344zm0 0"/><path d="m312.164062 387.046875 7.332032 29.003906c37.066406-9.367187 76.253906-9.367187 113.324218 0l7.332032-29.003906c-41.867188-10.582031-86.125-10.582031-127.988282 0zm0 0"/><path d="m71.851562 387.046875 7.332032 29.003906c37.066406-9.367187 76.253906-9.367187 113.320312 0l7.332032-29.003906c-41.863282-10.582031-86.121094-10.582031-127.984376 0zm0 0"/></svg>