<svg viewBox="1 0 511.999 511" xmlns="http://www.w3.org/2000/svg"><path d="m350.449219.5h-188.921875l-98.257813 65.925781-63.269531 317.144531 12.265625 4.316407c2.140625.753906 56.148437 19.996093 78.898437 28.101562v96h329.671876v-95.539062l91.164062-30.644531-62.675781-319.386719zm-94.449219 109.890625-59.9375-79.921875h119.878906zm-14.984375 29.96875v101.460937l-142.160156-163.179687 63.777343-42.789063zm0 147.089844v194.570312h-29.96875v-228.972656zm29.96875 0 29.972656-34.402344v228.972656h-29.972656zm0-45.628907v-101.460937l78.410156-104.542969 63.929688 42.621094zm-236.515625 122.15625 5.492188-27.53125 51.207031 19.113282v28.613281c-17.421875-6.207031-42.054688-14.980469-56.699219-20.195313zm56.695312-123.714843v83.308593l-45.261718-16.894531 39.476562-197.882812 95.695313 109.851562v263.375h-59.9375v-241.757812zm299.703126 241.757812h-59.941407v-263.375l96.085938-110.292969 39.15625 199.535157-45.332031 16.0625v-83.6875h-29.96875zm29.96875-97.1875v-29.085937l51.164062-18.128906 5.527344 28.15625zm0 0"/></svg>