<svg viewBox="-31 1 511 511.99999" xmlns="http://www.w3.org/2000/svg"><path d="m375.242188 512 74.949218-74.949219v-338.582031l-134.277344-98.46875-65.3125 41.238281-.3125.203125c-15.152343 10.101563-34.734374 10.101563-49.886718 0l-65.625-41.441406-134.277344 98.46875v338.582031l74.949219 74.949219 74.949219-74.949219v-272.996093l33.371093 22.25c25.253907 16.835937 57.894531 16.835937 83.152344 0l33.371094-22.25v272.996093zm44.96875-87.367188-44.96875 44.96875-44.96875-44.96875c0-18.972656 0-358.027343 0-376.925781l29.980468 21.984375v115.320313h29.980469v-93.335938l29.976563 21.984375zm-299.792969 0-44.96875 44.96875-44.96875-44.96875v-310.972656l29.976562-21.984375v93.335938h29.980469v-115.320313l29.980469-21.984375zm29.980469-296.609374v-82.707032l33.535156 21.175782c8.203125 5.4375 17.179687 9.09375 26.421875 10.988281v88.863281c-3.457031-1.226562-6.800781-2.882812-9.953125-4.984375zm99.890624 33.335937c-3.152343 2.101563-6.496093 3.757813-9.953124 4.984375v-88.863281c9.242187-1.894531 18.21875-5.546875 26.421874-10.984375l33.535157-21.175782v82.703126zm0 0"/></svg>