<svg viewBox="0 0 512 512" xmlns="http://www.w3.org/2000/svg"><path d="m482 324.269531v-99.308593c18.203125-13.699219 30-35.476563 30-59.960938 0-36.21875-25.808594-66.523438-60-73.492188v-16.507812c0-41.355469-33.644531-75-75-75h-302c-41.355469 0-75 33.644531-75 75s33.644531 75 75 75h45v287c0 41.355469 33.644531 75 75 75h242c41.355469 0 75-33.644531 75-75 0-36.21875-25.808594-66.523438-60-73.492188v-54.238281zm-30-48.539062-15-7.5-15 7.5v-37.242188c4.847656.988281 9.863281 1.511719 15 1.511719s10.152344-.523438 15-1.511719zm30-110.730469c0 24.8125-20.1875 45-45 45s-45-20.1875-45-45 20.1875-45 45-45 45 20.1875 45 45zm-407-45c-24.8125 0-45-20.1875-45-45s20.1875-45 45-45 45 20.1875 45 45v45zm75 317v-362c0-16.871094-5.601562-32.457031-15.039062-45h242.039062c24.8125 0 45 20.1875 45 45v16.507812c-34.191406 6.96875-60 37.273438-60 73.492188 0 24.484375 11.796875 46.261719 30 59.960938v99.308593l30-15v52.730469h-227v30c24.8125 0 45 20.1875 45 45s-20.1875 45-45 45-45-20.1875-45-45zm332 0c0 24.8125-20.1875 45-45 45h-182.039062c9.4375-12.542969 15.039062-28.128906 15.039062-45 0-16.867188-5.601562-32.457031-15.035156-45h182.035156c24.8125 0 45 20.1875 45 45zm0 0"/><path d="m180 120h152v30h-152zm0 0"/><path d="m180 180h152v30h-152zm0 0"/><path d="m180 240h152v30h-152zm0 0"/><path d="m458.222656 165.007812-21.214844 21.214844-21.210937-21.214844 21.210937-21.210937zm0 0"/></svg>