<svg viewBox="0 0 512 512" xmlns="http://www.w3.org/2000/svg"><path d="m387.886719 91-11.65625-35.742188-18.417969-55.257812h-203.625l-18.449219 55.351562-11.625 35.648438h-124.113281v421h512v-421zm-146.886719 211h30v30h-30zm0-30v-30h30v30zm-30-60v60h-106c-41.355469 0-75-33.644531-75-75v-76h452v76c0 41.355469-33.644531 75-75 75h-106v-60zm-46.769531-147.257812 11.582031-34.742188h160.375l11.550781 34.648438 8.59375 26.351562h-200.664062zm-134.230469 348.472656 68.785156 68.785156h-68.785156zm383.214844 68.785156 68.785156-68.785156v68.785156zm68.785156-111.214844-111.214844 111.214844h-229.570312l-111.214844-111.214844v-100.382812c19.074219 19.484375 45.644531 31.597656 75 31.597656h106v60h90v-60h106c29.355469 0 55.925781-12.113281 75-31.597656zm0 0"/></svg>