<svg viewBox="0 0 511 511.9991" xmlns="http://www.w3.org/2000/svg"><path d="m494.707031 17.53125c-24.683593-24.683594-65.445312-23.167969-88.1875 3.703125l-97.007812 114.015625-49.621094-115.78125-116.085937 116.085938 64.996093 27.851562c-10.300781 5.019531-19.714843 11.644531-28.148437 20.078125l-41.269532 41.269531c-12.074218 12.078125-25.820312 22.109375-40.9375 29.910156-28.195312-14.527343-63.746093-10.003906-87.347656 13.597657l-10.597656 10.597656 64.648438 64.648437c-19.230469 29.082032-16.054688 68.722657 9.53125 94.308594 25.847656 25.847656 65.492187 28.683594 94.320312 9.542969l64.640625 64.640625 10.597656-10.597656c23.746094-23.746094 28.191407-59.597656 13.335938-87.875 7.675781-14.476563 17.421875-27.664063 29.050781-39.292969l42.390625-42.390625c8.148437-8.148438 14.882813-17.488281 20.074219-28.144531l27.855468 64.992187 116.082032-116.082031-115.832032-49.644531 113.832032-97.269532c26.785156-22.695312 28.40625-63.433593 3.679687-88.164062zm-298.402343 107.910156 53.476562-53.472656 38.167969 89.0625c-1.125 1.039062-1.535157 1.445312-2.578125 2.578125zm-100.429688 291.183594c-13.8125-13.816406-16.734375-34.457031-8.773438-51.164062l59.957032 59.957031c-16.375 7.835937-37.082032 5.308593-51.183594-8.792969zm135.964844 51.183594-187.136719-187.132813c16.710937-7.960937 37.359375-5.035156 51.171875 8.78125l127.167969 127.167969c14.085937 14.085938 16.636719 34.808594 8.796875 51.183594zm75.980468-157.15625-42.386718 42.386718c-10.757813 10.757813-20.152344 22.648438-28.078125 35.507813l-113.675781-113.675781c13.390624-8.097656 25.746093-17.773438 36.898437-28.925782l41.269531-41.269531c14.398438-14.390625 33.261719-21.699219 52.074219-21.929687l19.660156 8.425781c-.800781 12.460937 3.539063 25.195313 13.042969 34.699219 9.109375 9.109375 21.628906 13.882812 34.703125 13.042968l8.425781 19.660157c-.234375 18.773437-7.507812 37.648437-21.933594 52.078125zm21.195313-105.972656c-5.84375 5.84375-15.351563 5.839843-21.195313 0-5.859374-5.859376-5.859374-15.335938 0-21.195313 5.855469-5.855469 15.335938-5.859375 21.195313 0 5.84375 5.84375 5.84375 15.351563 0 21.195313zm111.515625 58.039062-53.472656 53.472656-38.171875-89.0625c.445312-.410156.890625-.824218 1.324219-1.253906v-.003906c.433593-.429688.84375-.875 1.257812-1.320313zm-80.171875-84.792969c-2.183594-5.703125-5.558594-11.046875-10.148437-15.636719-4.605469-4.605468-9.972657-7.988281-15.695313-10.171874l47.820313-56.207032 34.097656 34.101563zm111.257813-95.070312c-18.894532 16.144531-13.601563 11.621093-32.328126 27.625l-37.46875-37.46875c27.117188-31.828125 27.601563-32.589844 29.300782-34.285157 11.6875-11.6875 30.703125-11.6875 42.390625 0 12.308593 12.308594 11.632812 32.699219-1.894531 44.128907zm0 0"/></svg>