<svg viewBox="-61 0 512 512.00002" xmlns="http://www.w3.org/2000/svg"><path d="m0 181.144531v23.742188c0 95.640625 59.90625 178.503906 146.023438 210.617187l-31.8125 96.496094h161.40625l-31.808594-96.496094c86.113281-32.113281 146.019531-114.976562 146.019531-210.613281v-23.746094h-44.980469v-29.382812c25.839844-6.675781 44.980469-30.183594 44.980469-58.078125 0-25.964844-32.515625-64.921875-49.125-82.320313l-10.847656-11.363281c-3.621094 4.042969-27.355469 26.824219-44.980469 54.390625-17.492188-27.351563-41.621094-50.640625-44.980469-54.390625-3.621093 4.042969-27.351562 26.824219-44.980469 54.390625-17.492187-27.351563-41.621093-50.640625-44.980468-54.390625-3.621094 4.042969-27.351563 26.824219-44.980469 54.390625-17.492187-27.351563-41.617187-50.640625-44.980469-54.390625-3.539062 3.992188-59.972656 58.601562-59.972656 93.683594 0 27.894531 19.144531 51.402344 44.980469 58.074218v29.386719zm30.082031 29.988281h177.738281c-1.742187 98.609376-44.175781 160.628907-50.492187 176.585938-74.722656-27.457031-124.765625-96.5625-127.246094-176.585938zm134.84375-59.375c11.789063-3.042968 22.171875-9.601562 29.988281-18.46875 7.820313 8.867188 18.199219 15.425782 29.988282 18.46875v29.386719h-59.976563zm131.648438 59.375-.136719.679688c-12.007812 60.046875-45.714844 113.714844-93.308594 150.972656 21.964844-47.445312 33.828125-99.382812 34.679688-151.652344zm-140.902344 270.878907 20.101563-60.972657h38.285156l20.097656 60.972657zm67-90.957031h-7.140625c98.734375-72.882813 110.140625-176.089844 111.621094-179.933594h32.59375c-2.585938 83.480468-56.941406 155.101562-137.074219 179.933594zm32.214844-209.910157v-29.386719c11.789062-3.042968 22.167969-9.601562 29.988281-18.46875 7.820312 8.867188 18.199219 15.425782 29.988281 18.46875v29.386719zm74.972656-136.96875c15.902344 18.824219 29.984375 40.308594 29.984375 49.507813 0 16.535156-13.453125 29.988281-29.988281 29.988281-16.535157 0-29.988281-13.453125-29.988281-29.988281 0-9.171875 14.085937-30.667969 29.992187-49.507813zm-89.960937 0c15.902343 18.824219 29.984374 40.308594 29.984374 49.507813 0 16.535156-13.453124 29.988281-29.988281 29.988281-16.535156 0-29.988281-13.453125-29.988281-29.988281 0-9.171875 14.085938-30.667969 29.992188-49.507813zm-89.960938 0c15.902344 18.824219 29.984375 40.308594 29.984375 49.507813 0 16.535156-13.453125 29.988281-29.988281 29.988281s-29.984375-13.453125-29.984375-29.988281c0-9.171875 14.082031-30.667969 29.988281-49.507813zm-119.949219 49.507813c0-9.171875 14.085938-30.667969 29.992188-49.507813 15.898437 18.824219 29.980469 40.308594 29.980469 49.507813 0 16.535156-13.453126 29.988281-29.988282 29.988281s-29.984375-13.453125-29.984375-29.988281zm44.980469 58.074218c11.785156-3.042968 22.167969-9.601562 29.984375-18.46875 7.820313 8.867188 18.199219 15.425782 29.988281 18.46875v29.386719h-59.972656zm0 0"/></svg>