<svg viewBox="0 0 511.99967 511" xmlns="http://www.w3.org/2000/svg"><path d="m294.445312 28.804688-.59375.464843c-.15625.144531-6.320312 5.976563-11.703124 11.050781l-21.539063-21.539062-21.191406 21.191406 21.941406 21.941406c-18.300781 24.367188-24.289063 54.367188-19.074219 82.296876l-192.574218 235.84375 30.710937 30.714843-80.421875 79.539063 21.074219 21.308594 80.542969-79.65625 30.828124 30.828124 235.84375-192.574218c27.910157 5.210937 57.902344-.753906 82.296876-19.074219l21.941406 21.941406 21.191406-21.191406-21.242188-21.246094c7.460938-7.648437 9.898438-10.53125 11.09375-12.425781l.125-.164062c41.644532-53.511719 36.84375-130.070313-11.167968-178.082032-48.011719-48.011718-124.570313-52.816406-178.082032-11.167968zm-204.386718 349.21875 28.578125-35 50.835937 50.835937-34.996094 28.578125zm102.746094-3.214844-55.117188-55.113282 116.621094-142.824218c4.574218 7.960937 10.230468 15.371094 16.898437 22.039062l42.382813 42.382813c6.667968 6.667969 14.078125 12.324219 22.039062 16.898437zm141.976562-154.707032-42.382812-42.382812c-25.585938-25.585938-28.753907-65.214844-9.523438-94.289062l146.203125 146.203124c-29.074219 19.230469-68.710937 16.054688-94.296875-9.53125zm125.726562-21.050781c-3.230468 3.5 1.347657-.464843-9.230468 10.398438l-147.925782-147.925781c4.226563-3.988282 8.390626-7.921876 10.050782-9.496094 41.578125-31.917969 100.753906-28.042969 137.933594 9.136718 37.164062 37.167969 41.054687 96.3125 9.171874 137.886719zm0 0"/><path d="m218.226562 315.46875-21.191406-21.191406 63.574219-63.574219 21.191406 21.191406zm0 0"/></svg>