<svg viewBox="-59 0 512 512.00101" xmlns="http://www.w3.org/2000/svg"><path d="m173.332031 171.9375c-46.769531-32.300781-101.371093-30.554688-137.789062 11.929688-29.527344 34.453124-41.699219 90.246093-32.566407 149.246093 7.261719 46.882813 26.847657 91.160157 55.15625 124.683594 29.519532 34.953125 65.152344 54.203125 100.335938 54.203125 13.378906 0 26.25-2.867188 38.359375-8.53125 12.113281 5.664062 24.984375 8.53125 38.363281 8.53125 35.179688 0 70.816406-19.25 100.335938-54.203125 28.308594-33.523437 47.894531-77.800781 55.152344-124.683594 9.136718-59-3.039063-114.792969-32.5625-149.246093-36.40625-42.476563-91.007813-44.238282-137.789063-11.929688-2.105469 1.453125-4.34375 2.65625-6.664063 3.667969 2.335938-60.429688 33.773438-117.632813 83.25-150.617188l-16.660156-24.988281c-29.574218 19.71875-54.164062 47.164062-71.109375 79.375-.003906.003906-.003906.003906-.003906.003906-10.378906-29.03125-38.152344-49.867187-70.707031-49.867187h-45.046875v45.042969c0 41.398437 33.679687 75.078124 75.074219 75.078124h17.558593c-1.386719 9.054688-2.203125 18.1875-2.449219 27.335938-3.613281-1.183594-7.074218-2.84375-10.238281-5.03125zm10.144531-52.335938h-15.015624c-24.835938 0-45.042969-20.207031-45.042969-45.046874v-15.011719h15.015625c24.835937 0 45.042968 20.207031 45.042968 45.042969zm53.914063 77.046876c33.839844-23.367188 71.570313-23.980469 97.921875 6.761718 23.898438 27.886719 33.503906 74.65625 25.691406 125.109375-6.425781 41.503907-23.625 80.535157-48.421875 109.902344-23.71875 28.082031-51.203125 43.546875-77.390625 43.546875-10.828125 0-21.199218-2.832031-30.824218-8.417969l-7.539063-4.378906-7.535156 4.378906c-9.625 5.585938-19.996094 8.417969-30.824219 8.417969-26.1875 0-53.675781-15.464844-77.390625-43.546875-24.800781-29.367187-41.996094-68.398437-48.421875-109.902344-7.8125-50.453125 1.789062-97.222656 25.6875-125.109375 26.34375-30.734375 64.070312-30.136718 97.921875-6.761718 24.265625 16.753906 56.863281 16.753906 81.125 0zm0 0"/></svg>