<svg viewBox="0 0 512 512.00439" xmlns="http://www.w3.org/2000/svg"><path d="m459.464844 269.429688-21.203125-21.203126 34.308593-34.304687 25.25-75.757813-138.160156-138.164062h-224.429687l-115.34375 114.777344v87.71875l19.953125 20.09375-25.640625 25.636718 190.828125 190.828126 21.203125-21.203126 42.40625 42.40625zm-184.617188-239.445313h72.390625l116.277344 116.277344-17.15625 51.460937-29.300781 29.300782-95.441406-95.441407c15.535156-2.195312 30.507812-9.25 42.433593-21.175781l-21.203125-21.203125c-17.535156 17.535156-46.0625 17.535156-63.601562.007813l-10.609375-10.609376-84.8125 84.8125-21.203125-21.203124zm-224.972656 160.152344v-62.894531l97.730469-97.257813h84.835937l-112.226562 112.226563 63.609375 63.609374 84.8125-84.8125 148.421875 148.421876-21.203125 21.203124-74.210938-74.210937-21.203125 21.203125 74.210938 74.210938-21.203125 21.203124-74.210938-74.210937-21.199219 21.203125 74.207032 74.210938-21.203125 21.203124-212.03125-212.03125-37.96875 37.972657zm6.730469 58.089843 42.40625-42.40625 21.203125 21.203126-42.40625 42.40625zm42.40625 42.40625 42.40625-42.40625 21.203125 21.203126-42.40625 42.40625zm42.40625 42.40625 42.40625-42.40625 21.203125 21.203126-42.40625 42.40625zm42.40625 42.40625 42.40625-42.40625 21.203125 21.203126-42.40625 42.40625zm84.8125 42.40625-21.203125-21.203124 21.203125-21.203126 21.203125 21.203126zm0 0"/><path d="m440.082031 460.394531-44.980469-44.980469 21.203126-21.203124 44.980468 44.980468zm0 0"/><path d="m498.753906 384.953125-57.21875-26.878906 12.75-27.140625 57.21875 26.878906zm0 0"/><path d="m358.613281 512.003906-26.882812-58.710937 27.261719-12.484375 26.882812 58.710937zm0 0"/><path d="m71.46875 460.390625-21.203125-21.203125 44.976563-44.976562 21.203124 21.203124zm0 0"/><path d="m.00390625 357.808594 57.21484375-26.878906 12.75 27.140624-57.214844 26.878907zm0 0"/><path d="m152.921875 511.917969-27.261719-12.496094 26.886719-58.652344 27.257813 12.496094zm0 0"/></svg>