<svg viewBox="0 0 512 512" xmlns="http://www.w3.org/2000/svg"><path d="m196 511.851562 60-52 60 52v-121.851562h196v-390h-512v390h196zm-13.492188-211.851562h-64.164062c-2.328125-6.339844-6.140625-12.15625-11.265625-17.054688-4.964844-4.746093-10.785156-8.277343-17.078125-10.441406v-155.007812c6.292969-2.164063 12.113281-5.695313 17.078125-10.441406 5.125-4.898438 8.9375-10.714844 11.265625-17.054688h275.226562c4.527344 12.769531 14.660157 22.902344 27.429688 27.429688v155.140624c-12.769531 4.527344-22.902344 14.664063-27.429688 27.429688h-64.082031c-6.964843-34.191406-37.269531-60-73.488281-60s-66.523438 25.808594-73.492188 60zm28.492188 15c0-24.8125 20.1875-45 45-45s45 20.1875 45 45-20.1875 45-45 45-45-20.1875-45-45zm45 105.152344-30 26v-62.433594c9.195312 4.027344 19.335938 6.28125 30 6.28125s20.804688-2.253906 30-6.28125v62.433594zm-226-60.152344v-330h452v330h-166v-.050781c6.542969-8.714844 11.238281-18.894531 13.492188-29.949219h91.507812v-15c0-8.269531 6.730469-15 15-15h15v-210h-15c-8.269531 0-15-6.730469-15-15v-15h-330v15c0 7.992188-7.476562 15-16 15h-15v210h15c8.523438 0 16 7.007812 16 15v15h91.507812c2.253907 11.054688 6.949219 21.234375 13.492188 29.949219v.050781zm0 0"/><path d="m234.785156 314.992188 21.210938-21.214844 21.214844 21.214844-21.214844 21.210937zm0 0"/><path d="m151 120h210v30h-210zm0 0"/><path d="m121 180h270v30h-270zm0 0"/></svg>