<svg viewBox="0 0 512 512" xmlns="http://www.w3.org/2000/svg"><path d="m512 512c0-8.511719 0-501.785156 0-512h-512v512zm-256-422c36.929688 0 67.496094-26.402344 74.464844-60.011719h30.449218c-7.367187 50.785157-51.570312 90.011719-104.914062 90.011719-53.550781 0-97.578125-39.421875-104.914062-90h30.449218c6.960938 33.589844 37.519532 60 74.464844 60zm-43.257812-60.011719h86.515624c-6.476562 17.28125-23.667968 30.011719-43.257812 30.011719s-36.78125-12.730469-43.257812-30.011719zm-32.917969 97.355469c.007812-.183594.007812-.367188.015625-.550781 21.746094 14.644531 47.964844 23.207031 76.160156 23.207031 28.199219 0 54.417969-8.5625 76.160156-23.207031.007813.183593.007813.367187.015625.550781 2.863281 59.902344 42.433594 109.207031 95.34375 130.8125-24.25 16.492188-41.394531 42.921875-45.261719 73.84375l-11.113281 90h-230.289062l-11.117188-90.023438c-3.863281-30.90625-21.007812-57.332031-45.257812-73.820312 52.894531-21.597656 92.476562-70.863281 95.34375-130.8125zm-31.5625 354.65625-3.703125-30h222.882812l-3.703125 30zm333.738281 0h-88.035156l18.0625-146.300781c4.5-35.972657 34.191406-63.449219 69.972656-65.566407zm0-242.140625c-63.757812-2.96875-116.941406-52.945313-119.859375-113.949219-.253906-5.296875-.144531-10.570312.285156-15.800781 13.828125 6.503906 28.933594 9.890625 44.574219 9.890625 29.355469 0 55.925781-12.113281 75-31.597656zm-75-149.859375c-11.667969 0-22.914062-2.644531-33.136719-7.699219 9.144531-15.71875 15.183594-33.441406 17.292969-52.3125h89.335938c-6.96875 34.191407-37.273438 60.011719-73.492188 60.011719zm-286.15625-60c2.109375 18.871094 8.148438 36.582031 17.292969 52.300781-10.222657 5.054688-21.46875 7.699219-33.136719 7.699219-36.21875 0-66.523438-25.808594-73.492188-60zm-15.84375 90c15.640625 0 30.746094-3.386719 44.574219-9.890625.429687 5.230469.535156 10.503906.285156 15.800781-2.917969 61.003906-56.101563 110.980469-119.859375 113.949219v-151.457031c19.074219 19.484375 45.644531 31.597656 75 31.597656zm-75 362v-211.867188c35.78125 2.113282 65.472656 29.589844 69.96875 65.542969l18.066406 146.324219zm0 0"/></svg>