<svg viewBox="-76 0 512 512" xmlns="http://www.w3.org/2000/svg"><path d="m360 211v-90h-300v-16c0-20.722656 14.085938-38.210938 33.179688-43.414062 6.621093 16.625 22.863281 28.414062 41.820312 28.414062 24.8125 0 45-20.1875 45-45s-20.1875-45-45-45c-19.96875 0-36.929688 13.078125-42.796875 31.113281-35.277344 6.09375-62.203125 36.894531-62.203125 73.886719v16h-30v90h31.75l26.265625 211h-28.015625v90h300v-90h-28.015625l26.265625-211zm-225-181c8.269531 0 15 6.730469 15 15s-6.730469 15-15 15-15-6.730469-15-15 6.730469-15 15-15zm-105 121h300v30h-300zm120 60h60v107.972656l-30-20-30 20zm150 271h-240v-30h240zm-28.246094-60h-183.503906l-26.265625-211h58.015625v164.027344l60-40 60 40v-164.027344h58.015625zm0 0"/></svg>