<svg viewBox="1 0 511.99995 511" xmlns="http://www.w3.org/2000/svg"><path d="m151.164062 484.246094-55.582031-20.230469 24.613281-67.269531c2.445313-.902344 46.40625-8.148438 88.058594-45.023438 20.152344-17.84375 36.375-39.671875 47.550782-63.773437 43.230468 93.253906 133.878906 107.941406 135.644531 108.808593l24.914062 67.277344-55.527343 20.210938 10.257812 28.179687 140.90625-51.285156-10.257812-28.179687-57.199219 20.816406-24.933594-67.335938c.484375-1.1875 66.84375-79.261718 28.316406-185.125l-33.738281-92.6875c-.164062.0625-158.347656 57.304688-158.503906 57.359375-.15625-.054687-158.101563-57.296875-158.269532-57.359375l-33.734374 92.6875c-38.8125 106.640625 27.585937 183.320313 28.339843 185.15625l-24.617187 67.285156-57.144532-20.796874-10.257812 28.179687 140.90625 51.285156zm245.414063-117.105469-1.78125-.433594c-54.394531-13.25-98.117187-52.070312-116.960937-103.847656l-2.574219-7.078125c21.109375-5.078125 43.605469-5.121094 64.710937.023438 12.535156 2.5625 44.667969 14.53125 89.582032 4.859374 2.847656 63.1875-32.425782 105.367188-32.976563 106.476563zm-.3125-220.070313 23.476563 64.503907c2.308593 6.347656 4.207031 12.78125 5.714843 19.265625-40.371093 9.40625-69.207031-2.753906-78.386719-4.175782-21.914062-5.335937-45.0625-6.078124-67.355468-2.355468l14.675781-40.320313c116.960937-42.386719 100.199219-36.3125 101.875-36.917969zm-280.925781 0c.144531.050782 141.785156 51.304688 141.886718 51.339844l-10.578124 29.0625c-51.34375-13.46875-89.824219 1.910156-97.976563 3.058594-20.625 5.023438-41.996094 5.089844-62.523437.308594 1.503906-6.484375 3.402343-12.917969 5.714843-19.265625zm-33.285156 113.585938c24.257812 5.226562 49.414062 4.933594 73.714843-.988281 8.726563-1.3125 38.980469-13.902344 80.574219-3.878907l-2.574219 7.074219c-32.386719 88.980469-117.777343 103.769531-118.742187 104.277344-.59375-1.1875-35.832032-43.210937-32.972656-106.484375zm0 0"/><path d="m241.003906.5h29.992188v60.980469h-29.992188zm0 0"/><path d="m212.589844 72.835938-21.207032 21.203124-42.410156-42.410156 21.203125-21.207031zm0 0"/><path d="m363.03125 51.625-42.414062 42.414062-21.203126-21.207031 42.410157-42.414062zm0 0"/></svg>