<svg viewBox="0 0 512 512.00028" xmlns="http://www.w3.org/2000/svg"><path d="m512 421h-183.296875c36.96875-32.710938 62.296875-87.683594 62.296875-136 0-20.886719-4.847656-41.476562-14.066406-60.046875 8.996094-18.074219 14.066406-38.429687 14.066406-59.953125 0-30.90625-10.773438-60.945312-30-84.8125v-50.1875h30v75h30v-105h-330v30h60v50.1875c-19.226562 23.867188-30 53.90625-30 84.8125 0 21.523438 5.070312 41.878906 14.066406 59.953125-9.21875 18.570313-14.066406 39.160156-14.066406 60.046875 0 48.382812 25.382812 103.335938 62.296875 136h-101.085937l-55.496094-69.371094-23.425782 18.742188 40.503907 50.628906h-43.792969v29.988281h201.730469c-36.417969 74.917969-28.496094 58.628907-29.652344 61.011719h167.84375c-1.15625-2.378906 6.765625 13.914062-29.652344-61h201.730469zm-284.480469-34.960938c-9.972656-25.15625-15.75-58.210937-16.445312-93.734374 14.0625 4.976562 29.179687 7.695312 44.925781 7.695312s30.863281-2.71875 44.925781-7.695312c-.695312 35.523437-6.472656 68.578124-16.445312 93.734374-10.226563 25.804688-21.734375 34.960938-28.480469 34.960938s-18.253906-9.15625-28.480469-34.960938zm133.480469-101.039062c0 35.945312-18.417969 80.742188-47.480469 109.054688 13.417969-35.59375 18.144531-78.773438 17.398438-116.808594 9.476562-6.34375 18.109375-13.859375 25.6875-22.332032 2.898437 9.710938 4.394531 19.847657 4.394531 30.085938zm-30-255v34.1875l-75 25-75-25v-34.1875zm-153.078125 64.785156 63.078125 21.027344v34.1875h30v-34.1875l63.078125-21.027344c17.421875 19.285156 26.921875 43.898438 26.921875 70.214844 0 57.898438-47.101562 105-105 105s-105-47.101562-105-105c0-26.316406 9.503906-50.933594 26.921875-70.214844zm-26.921875 190.214844c0-10.238281 1.5-20.375 4.394531-30.085938 7.578125 8.472657 16.210938 15.988282 25.6875 22.332032-.75 38.085937 4 81.265625 17.398438 116.808594-29.105469-28.359376-47.480469-73.167969-47.480469-109.054688zm141.078125 197h-72.15625c21.035156-42.484375 13.777344-27.839844 15.347656-31.011719h41.460938c1.570312 3.171875-5.6875-11.472656 15.347656 31.011719zm0 0"/><path d="m301 150h30v30h-30zm0 0"/><path d="m181 150h30v30h-30zm0 0"/><path d="m296.605469 205.605469-21.210938-21.210938-19.394531 19.390625-19.394531-19.390625-21.210938 21.210938 40.605469 40.609375zm0 0"/></svg>