<svg viewBox="0 0 512 512" xmlns="http://www.w3.org/2000/svg"><path d="m512 60h-61.199219c-6.035156-37.640625-32.328125-60-58.800781-60-18.09375 0-34.234375 10.003906-45 25.226562-10.785156-15.257812-26.9375-25.226562-45-25.226562-18.121094 0-34.265625 10.035156-45 25.222656-10.730469-15.183594-26.875-25.222656-45-25.222656-18.140625 0-34.277344 10.054688-45 25.222656-10.730469-15.183594-26.875-25.222656-45-25.222656-26.589844 0-52.792969 22.523438-58.800781 60h-63.199219v452h512zm-120-30c12.773438 0 23.988281 12.71875 28.210938 30h-56.421876c4.222657-17.28125 15.4375-30 28.210938-30zm-90 0c12.773438 0 23.988281 12.71875 28.210938 30h-56.421876c4.222657-17.28125 15.4375-30 28.210938-30zm-90 0c12.773438 0 23.988281 12.71875 28.210938 30h-56.421876c4.222657-17.28125 15.4375-30 28.210938-30zm-90 0c12.773438 0 23.988281 12.71875 28.210938 30h-56.421876c4.222657-17.28125 15.4375-30 28.210938-30zm28.210938 60c-4.222657 17.28125-15.4375 30-28.210938 30v30c16.613281 0 32.585938-8.59375 43.820312-23.574219 7.675782-10.230469 12.800782-22.832031 14.984376-36.4375h59.40625c-4.222657 17.28125-15.4375 30.011719-28.210938 30.011719v30c16.613281 0 32.585938-8.59375 43.820312-23.574219 7.675782-10.230469 12.800782-22.832031 14.984376-36.4375h59.40625c-4.222657 17.28125-15.4375 30.011719-28.210938 30.011719v30c16.613281 0 32.585938-8.59375 43.820312-23.574219 7.671876-10.230469 12.800782-22.832031 14.980469-36.4375h59.410157c-4.222657 17.28125-15.4375 30.011719-28.210938 30.011719v30c16.613281 0 32.585938-8.59375 43.820312-23.574219 7.671876-10.230469 12.800782-22.824219 14.980469-36.425781h31.199219v91h-452v-91zm-120.210938 121h452v181h-90v90h-362zm430.785156 211-38.785156 38.785156v-38.785156zm-17.570312 60 38.785156-38.785156v38.785156zm0 0"/><path d="m362 362h90v-120c-77.324219 0-309.507812 0-390 0v210h300zm0-90h60v60h-60zm-30 0v60h-60v-60zm-90 0v60h-60v-60zm-150 0h60v60h-60zm0 90h60v60h-60zm90 60v-60h60v60zm150 0h-60v-60h60zm0 0"/></svg>