<svg viewBox="0 -31 512.00095 512" xmlns="http://www.w3.org/2000/svg"><path d="m391.746094 299.300781v-29.472656h-119.730469l-43.589844-31.648437-77.523437 25.839843v-24.171875h-150.902344v209.863282h150.902344v-24.210938l73.097656 24.210938h159.617188l128.382812-148.652344-68.527344-57.285156zm-270.824219 120.429688h-90.941406v-149.902344h90.941406zm348.472656-115.210938-99.496093 115.210938h-141.0625l-77.933594-25.816407v-98.292968l72.382812-24.125 38.996094 28.3125h99.484375v29.980468h-116.921875v29.980469h131.550781l69.648438-74.769531zm0 0"/><path d="m75.953125 353.554688 21.199219 21.199218-21.199219 21.199219-21.199219-21.199219zm0 0"/><path d="m372.722656 138.507812c36.0625 4.246094 61.035156 11.160157 62.109375 11.394532h1.886719c41.328125 0 74.953125-33.621094 74.953125-74.949219s-33.625-74.953125-74.953125-74.953125h-1.886719l-1.824219.46875c-37.039062 9.464844-80.066406 14.476562-123.449218 15.039062-1.105469-.144531-54.996094 1.800782-113.816406-9.289062-9.152344-3.992188-19.242188-6.21875-29.847657-6.21875-41.328125 0-74.953125 33.625-74.953125 74.953125s33.625 74.949219 74.953125 74.949219c10.546875 0 20.585938-2.199219 29.703125-6.148438 28.722656-5.363281 60.902344-8.53125 93.683594-9.179687 2.867188 8.300781 8.097656 15.5 14.886719 20.800781l-16.582031 49.75 28.441406 9.480469 15.757812-47.277344 15.761719 47.277344 28.441406-9.480469-16.582031-49.75c5.691406-4.445312 10.289062-10.222656 13.316406-16.867188zm65.730469-108.492187c23.996094.914063 43.238281 20.722656 43.238281 44.9375s-19.242187 44.023437-43.238281 44.9375c-19.511719-4.882813-40.699219-8.648437-63.132813-11.253906-2.363281-9.117188-7.53125-17.113281-14.515624-23.027344.628906-3.496094.960937-7.050781.960937-10.65625 0-11.546875-3.289063-22.339844-8.96875-31.5 30.152344-2.371094 59.304687-6.847656 85.65625-13.4375zm-106.667969 104.898437c-8.265625 0-14.988281-6.726562-14.988281-14.992187s6.722656-14.988281 14.988281-14.988281 14.992188 6.722656 14.992188 14.988281-6.726563 14.992187-14.992188 14.992187zm-24.800781-89.484374c14.070313 2.460937 24.800781 14.757812 24.800781 29.523437-19.414062 0-35.988281 12.363281-42.273437 29.632813-19.125.355468-38.089844 1.535156-56.402344 3.480468 4.941406-9.992187 7.734375-21.230468 7.734375-33.113281 0-11.855469-2.777344-23.070313-7.699219-33.042969 24.058594 2.554688 48.980469 3.730469 73.839844 3.519532zm-126.101563-11.605469c1.835938.382812 3.671876.765625 5.527344 1.128906 10.125 5.21875 18.027344 14.160156 21.875 25.007813h-27.402344zm-59.960937 41.128906c0-19.542969 12.53125-36.207031 29.980469-42.394531v57.375h57.382812c-3.859375 10.878906-11.792968 19.847656-21.957031 25.058594-7.613281 1.480468-14.972656 3.117187-22.070313 4.890624-24.042968-.867187-43.335937-20.683593-43.335937-44.929687zm0 0"/></svg>