<svg viewBox="0 0 512 512.00015" xmlns="http://www.w3.org/2000/svg"><path d="m498.84375 13.15625c-17.539062-17.542969-46.078125-17.539062-63.617188 0l-31.808593 31.808594 63.617187 63.617187 31.808594-31.808593c17.539062-17.539063 17.539062-46.078126 0-63.617188zm-31.808594 53.015625-21.207031-21.207031 10.601563-10.605469c5.851562-5.84375 15.359374-5.847656 21.207031 0 5.847656 5.847656 5.847656 15.359375 0 21.207031zm0 0"/><path d="m324.71875 335.722656c38.054688-38.050781 37.476562-79.75 42.085938-94.855468 1.792968-8.964844 2.46875-15.847657 3.011718-21.375 1.203125-12.265626 1.488282-15.179688 12.691406-26.378907l63.320313-63.324219-63.617187-63.621093-63.324219 63.324219c-11.199219 11.203124-14.113281 11.488281-26.378907 12.691406-5.527343.542968-12.410156 1.21875-21.375 3.011718-15.003906 4.578126-56.828124 4.054688-94.855468 42.085938l-176.277344 176.273438 148.445312 148.445312zm-70.246094 27.832032-63.617187 63.621093-106.03125-106.03125 63.621093-63.617187 42.410157 42.410156 10.601562-10.601562c5.859375-5.859376 15.347657-5.863282 21.207031 0 5.859376 5.859374 5.859376 15.34375 0 21.207031l-10.601562 10.601562zm40.964844-191.523438c16.035156-1.574219 26.769531-3.445312 44.65625-21.332031l42.117188-42.117188 21.207031 21.207031-42.117188 42.117188c-17.886719 17.886719-19.757812 28.621094-21.332031 44.65625-.453125 4.621094-.96875 9.8125-2.164062 16.289062l-48.882813-9.773437-9.773437-48.878906c6.476562-1.199219 11.667968-1.714844 16.289062-2.167969zm-97.957031 36.457031c14.371093-14.371093 32.417969-24.160156 52.261719-28.40625l13.695312 68.480469 68.476562 13.695312c-4.242187 19.84375-14.03125 37.890626-28.402343 52.261719l-27.832031 27.832031-23.007813-23.007812c7.835937-16.371094 5.304687-37.105469-8.800781-51.214844-14.097656-14.09375-34.832032-16.644531-51.214844-8.800781l-23.007812-23.007813zm-133.863281 133.863281 106.03125 106.03125-21.203126 21.203126-106.03125-106.03125zm0 0"/><path d="m190.855469 384.765625-63.617188-63.617187 21.203125-21.207032 63.617188 63.617188zm0 0"/><path d="m488.238281 129.785156 21.207031 21.207032-21.207031 21.203124-21.203125-21.203124zm0 0"/><path d="m276.183594 129.789062-21.207032-21.207031 21.207032-21.203125 21.207031 21.203125zm0 0"/><path d="m467.039062 235.824219-42.410156-42.414063 21.203125-21.203125 42.414063 42.410157zm0 0"/><path d="m297.386719 23.757812 42.410156 42.410157-21.207031 21.207031-42.410156-42.414062zm0 0"/><path d="m424.625 235.8125-21.203125 21.207031-21.207031-21.207031 21.207031-21.207031zm0 0"/><path d="m339.796875 23.761719 21.207031-21.207031 21.203125 21.207031-21.203125 21.203125zm0 0"/></svg>