<svg viewBox="0 1 511 511.99995" xmlns="http://www.w3.org/2000/svg"><path d="m450.664062 287.519531c7.28125-17.492187 10.574219-36.320312 9.804688-56.367187-.074219-1.890625-.191406-3.777344-.332031-5.664063 14.929687-5.640625 27.125-16.253906 34.53125-30.457031l.148437-.289062c9.726563-19.691407 9.730469-44.789063.003906-63.9375l-6.722656-13.234376-13.296875 6.589844c-14.199219 7.035156-25.832031 17.871094-34.09375 31.625-7.828125-16.949218-17.390625-33.1875-27.597656-48.25l.089844-.066406-.972657-1.332031c10.191407-11.019531 16.71875-25.078125 18.40625-40.21875 2.21875-19.902344-4.300781-39.835938-17.878906-54.6875l-10.265625-11.230469-11.074219 10.4375c-12.015624 11.324219-19.890624 25.503906-23.40625 40.433594-20.992187-22.925782-37.75-37.449219-39.609374-39.042969l-19.515626 22.757813c.433594.371093 16.324219 14.160156 36.480469 36.160156-15.507812 1.941406-30.488281 9.042968-42.589843 20.480468l-10.734376 10.148438 9.988282 10.882812c12.292968 13.390626 29.953125 20.167969 48.757812 20.167969 12.242188 0 24.964844-2.886719 37.003906-8.683593 9.304688 13.613281 17.984376 28.171874 25.070313 43.21875-14.8125-2.707032-31.085937-.355469-46.757813 6.925781l-14.261718 6.625 7.300781 13.925781c7.316406 13.964844 18.132813 22.910156 35.003906 28.988281 8.921875 3.265625 21.597657 6.632813 36.167969 6.828125l.140625.996094c.015625.367188.046875.738281.0625 1.105469.558594 14.714843-1.585937 28.371093-6.488281 41.140625-7.664063-12.269532-20.230469-21.980469-37.511719-28.902344l-11.820313-4.738281-6.585937 10.902343c-4.714844 7.808594-3.59375 16.21875-2.601563 21.179688.28125 15.585938 10.992188 39.652344 19.746094 52.640625-14.953125 13.667969-28.148437 23.394531-40.414062 31.191406 2.605468-16.460937-.976563-33.878906-10.355469-49.121093l-7.585937-12.324219-12.582032 7.148437c-13.046875 7.410156-23.652344 21.542969-29.09375 38.773438-4.300781 13.617187-4.9375 27.921875-1.992187 41.457031l-.070313.027344.148438.347656c.535156 2.410156 1.179687 4.796875 1.945312 7.152344-9.648437 5.9375-19.5 12.878906-29.914062 21.953125-10.414063-9.074219-20.265625-16.015625-29.914063-21.953125 11.480469-35.339844-4.265625-73.675781-29.0625-87.757813l-12.582031-7.148437-7.585938 12.324219c-9.378906 15.242187-12.960937 32.660156-10.355468 49.121093-12.265625-7.796875-25.460938-17.523437-40.414063-31.191406 8.742188-12.96875 19.464844-37.042969 19.75-52.640625.988281-4.957031 2.109375-13.367188-2.605469-21.179688l-6.585937-10.902343-11.820313 4.738281c-17.277343 6.921875-29.84375 16.628906-37.511718 28.90625-4.902344-12.769531-7.046875-26.429688-6.488282-41.144531.015626-.371094.046876-.742188.0625-1.113281l.140626-.988282c14.566406-.195312 27.230468-3.554687 36.097656-6.800781 16.941406-6.101563 27.757812-15.050781 35.078125-29.015625l7.300781-13.925781-14.265625-6.625c-15.671875-7.28125-31.945313-9.632813-46.757813-6.925781 7.085938-15.046876 15.765626-29.605469 25.070313-43.21875 12.039063 5.796874 24.761719 8.6875 37.003906 8.6875 18.800781 0 36.46875-6.78125 48.757813-20.171876l9.988281-10.882812-10.734375-10.148438c-12.105469-11.4375-27.085938-18.539062-42.589844-20.480468 20.15625-21.996094 36.042969-35.785156 36.472656-36.15625l-19.507812-22.757813c-1.859375 1.59375-18.617188 16.113281-39.609375 39.039063-3.519531-14.925782-11.390625-29.109375-23.40625-40.433594l-11.078125-10.4375-10.265625 11.230469c-13.582031 14.851562-20.097656 34.785156-17.878906 54.6875 1.6875 15.140625 8.210937 29.199219 18.40625 40.21875l-.972657 1.332031.089844.066406c-10.210937 15.0625-19.769531 31.300782-27.597656 48.25-8.261719-13.753906-19.894531-24.589844-34.09375-31.625l-13.296875-6.589844-6.722656 13.234376c-9.726563 19.148437-9.726563 44.246093.003906 63.9375l.148437.289062c7.40625 14.203125 19.601563 24.816406 34.53125 30.457031-.140624 1.886719-.257812 3.773438-.332031 5.664063-.769531 20.03125 2.519531 38.84375 9.789063 56.324218-15.882813-3.386718-30.578125-2.773437-43.792969 1.855469l-15.703125 5.503907 7.105469 15.042968c5.390625 11.421875 10.179687 23.023438 19.726562 31.613282l.6875.617187c.597657.335937 19.789063 14.984375 42.917969 14.980469 11.464844 0 22.632812-3.566406 32.824219-10.4375l1.121093 1.246094.761719-.792969c16.113281 14.675781 30.476563 25.253906 43.644531 33.664062-12.433593 6.894531-23.480468 17.230469-31.664062 30.503907l-8.296875 13.453124 13.878906 7.570313c32.742188 17.863281 65.734375 9.101563 86.457031-17.535156 7.898438 4.878906 15.863282 10.464843 24.183594 17.527343-14.371094 15.734376-30.027344 36.101563-47.703125 63.429688l25.171875 16.28125c16.519532-25.539062 30.894532-44.359375 44.019532-58.792969 13.125 14.433594 27.5 33.253907 44.023437 58.792969l25.167969-16.28125c-17.675782-27.328125-33.332032-47.695312-47.703125-63.429688 8.171875-6.933593 15.996093-12.441406 23.75-17.257812 8.558593 10.820312 19.496093 18.917969 31.707031 23.152344 18.613281 6.453125 37.75 3.625 55.1875-5.886719l13.875-7.570313-8.296875-13.453124c-7.921875-12.851563-18.972656-23.367188-31.769531-30.4375 13.195312-8.417969 27.597656-19.015626 43.753906-33.730469l.761719.792969 1.117187-1.242188c13.09375 8.820312 28.351563 12.554688 44.375 9.238281 11.265625-2.097656 23.339844-7.78125 32.058594-14.402343 7.871094-7.078126 15.167969-17.636719 21.683594-31.375l7.039062-14.84375-15.425781-5.652344c-16.453125-6.027344-33.523437-4.703125-45.976563-2.101563zm21.441407-124.175781c-.152344 6.808594-1.78125 13.230469-4.09375 17.972656-2.367188 4.484375-5.582031 8.265625-9.480469 11.230469 1.828125-10.339844 6.1875-20.753906 13.574219-29.203125zm-429.441407 17.972656c-2.308593-4.742187-3.9375-11.160156-4.09375-17.972656 7.390626 8.449219 11.75 18.867188 13.578126 29.203125-3.90625-2.964844-7.117188-6.742187-9.484376-11.230469zm357.382813-132.226562c1.027344 4.347656 1.308594 8.894531.792969 13.507812-.558594 5.023438-2.046875 9.84375-4.328125 14.242188-1.597657-9.191406-.367188-18.882813 3.535156-27.75zm-57.070313 52.679687c4.8125-1.367187 9.746094-1.878906 14.53125-1.441406 1.472657.136719 3.082032.375 4.765626.769531-6.648438 1.503906-13.253907 1.726563-19.296876.671875zm65.554688 94.878907c1.164062.25 2.296875.554687 3.394531.921874.152344.054688.304688.117188.457031.175782-1.339843-.347656-2.625-.714844-3.851562-1.097656zm-92.84375 147.453124c.125 4.28125-.457031 8.503907-1.765625 12.507813-.667969 2.03125-1.507813 3.957031-2.515625 5.757813.316406-6.613282 1.910156-12.863282 4.28125-18.265626zm-120.699219 0c2.371094 5.402344 3.964844 11.652344 4.28125 18.265626-1.007812-1.800782-1.847656-3.726563-2.515625-5.757813-1.308594-4.003906-1.890625-8.226563-1.765625-12.507813zm-96.238281-146.53125c1.105469-.371093 2.246094-.675781 3.417969-.925781-1.234375.382813-2.535157.757813-3.894531 1.109375.160156-.0625.316406-.125.476562-.183594zm49.652344-96.472656c1.6875-.394531 3.292968-.632812 4.765625-.769531 4.78125-.4375 9.71875.074219 14.53125 1.441406-6.042969 1.054688-12.644531.832031-19.296875-.671875zm-37.773438-52.007812c3.902344 8.867187 5.136719 18.554687 3.535156 27.75-2.28125-4.398438-3.765624-9.21875-4.328124-14.242188-.511719-4.613281-.234376-9.160156.792968-13.507812zm-45.261718 277.429687-.386719-.078125c-5.9375-1.085937-12.210938-3.777344-18.199219-7.804687-.894531-.898438-1.757812-1.964844-2.597656-3.167969 6.46875.425781 12.578125 1.878906 17.488281 3.421875l.183594.054687c5.878906 1.765626 12.101562 3.859376 17.820312 6.640626-4.65625 1.644531-9.4375 1.957031-14.308593.933593zm102.722656 83.402344c-3.660156 1.269531-7.445313 1.847656-11.335938 1.738281 7.554688-5.929687 16.257813-9.570312 25.058594-10.507812-4.113281 4.042968-8.769531 7.050781-13.722656 8.769531zm174.011718-.0625c-4.980468-1.726563-9.648437-4.695313-13.765624-8.660156 8.902343.960937 17.75 4.601562 25.390624 10.46875-3.96875.101562-7.855468-.503907-11.625-1.808594zm121.84375-91.257813c-9.558593 6.441407-22.035156 10.832032-32.945312 6.988282 9.4375-4.59375 25.023438-9.425782 35.859375-10.140625-.980469 1.179687-1.957031 2.234375-2.914063 3.152343zm0 0"/></svg>