<svg viewBox="-61 0 512 512" xmlns="http://www.w3.org/2000/svg"><path d="m0 60v392c0 33.085938 26.914062 60 60 60h330v-30h-6.429688c-9.636718-18.867188-9.636718-41.132812 0-60h6.429688v-422h-330c-33.085938 0-60 26.914062-60 60zm351.15625 422h-291.15625c-16.542969 0-30-13.457031-30-30s13.457031-30.011719 30-30.011719h291.15625c-6.429688 19.492188-6.429688 40.523438 0 60.011719zm8.84375-90h-300c-10.921875 0-21.171875 2.933594-30 8.050781v-340.050781c0-16.542969 13.457031-30 30-30h300zm0 0"/><path d="m60 120h60v54.269531l8.292969 4.148438c20.882812 10.441406 43.796875 15.664062 66.707031 15.664062s45.824219-5.222656 66.707031-15.664062l8.292969-4.148438v-54.269531h30v60h30v-90h-270zm180 35.335938c-28.734375 11.679687-61.265625 11.683593-90 0v-35.335938h90zm0 0"/><path d="m90 240h210v30h-210zm0 0"/><path d="m90 300h210v30h-210zm0 0"/></svg>