<svg viewBox="0 -76 512 512" xmlns="http://www.w3.org/2000/svg"><path d="m105 360c19.554688 0 36.226562-12.539062 42.421875-30h217.15625c6.195313 17.460938 22.867187 30 42.421875 30s36.226562-12.539062 42.421875-30h62.578125v-167.890625l-64.84375-162.109375h-447.15625v330h62.578125c6.195313 17.460938 22.867187 30 42.421875 30zm0-30c-8.269531 0-15-6.730469-15-15s6.730469-15 15-15 15 6.730469 15 15-6.730469 15-15 15zm-75-180v-60h60v60zm90-60h61v60h-61zm91 0h61v60h-61zm263.84375 60h-52.84375v-60h28.84375zm-82.84375 60h-30v-120h30zm-60 0h-30v-120h30zm-30 30h90v32.578125c-12.765625 4.527344-22.894531 14.65625-27.421875 27.421875h-62.578125zm105 90c-8.269531 0-15-6.730469-15-15s6.730469-15 15-15 15 6.730469 15 15-6.730469 15-15 15zm42.421875-30c-4.527344-12.765625-14.65625-22.894531-27.421875-27.421875v-92.578125h60v30h-30v30h30v60zm-22.578125-270 12 30h-408.84375v-30zm-396.84375 210h30v-30h-30v-30h242v120h-124.578125c-6.195313-17.460938-22.867187-30-42.421875-30s-36.226562 12.539062-42.421875 30h-32.578125zm0 0"/></svg>