<svg viewBox="0 -63 512 512" xmlns="http://www.w3.org/2000/svg"><path d="m105 385.171875h30c57.898438 0 105-47.101563 105-105 0-7.992187 7.476562-15 16-15s16 7.007813 16 15c0 57.898437 47.101562 105 105 105h30c57.898438 0 105-47.101563 105-105v-63.75l-102.710938-192.585937c-6.777343-12.707032-18.835937-21.210938-33.082031-23.332032-14.253906-2.121094-28.261719 2.507813-38.441406 12.691406l-46.371094 46.371094 21.210938 21.210938 46.371093-46.371094c3.394532-3.394531 8.070313-4.933594 12.8125-4.230469 4.75.707031 8.769532 3.542969 11.027344 7.78125l89.183594 167.214844h-155c-20.824219 0-38.382812 14.21875-43.492188 33.453125-5.507812-2.261719-11.433593-3.453125-17.507812-3.453125s-12 1.191406-17.507812 3.453125c-5.109376-19.234375-22.667969-33.453125-43.492188-33.453125h-155l89.183594-167.214844c2.257812-4.238281 6.277344-7.074219 11.027344-7.78125 4.746093-.703125 9.417968.835938 12.8125 4.230469l46.371093 46.371094 21.210938-21.210938-46.371094-46.371094c-10.183594-10.183593-24.1875-14.8125-38.441406-12.691406-14.246094 2.121094-26.304688 10.625-33.082031 23.332032l-102.710938 192.585937v63.75c0 57.898437 47.101562 105 105 105zm197-135c0-8.269531 6.730469-15 15-15h165v45c0 41.355469-33.644531 75-75 75h-30c-41.355469 0-75-33.644531-75-75zm-272-15h165c8.269531 0 15 6.730469 15 15v30c0 41.355469-33.644531 75-75 75h-30c-41.355469 0-75-33.644531-75-75zm0 0"/></svg>