<svg viewBox="0 0 512 512" xmlns="http://www.w3.org/2000/svg"><path d="m512 219.277344-60-53.5v-165.777344h-392v165.777344l-60 53.5v292.722656h512zm-364.964844 142.1875-117.035156 102.464844v-204.871094zm108.964844-55.527344 201.097656 176.0625h-402.195312zm108.964844 55.527344 117.035156-102.40625v204.871094zm109.378906-135.570313-22.34375 19.546875v-39.46875zm-52.34375-195.894531v241.691406l-79.808594 69.832032-86.191406-75.460938-86.191406 75.460938-79.808594-69.832032v-241.691406zm-362 215.441406-22.34375-19.546875 22.34375-19.921875zm0 0"/><path d="m180 144.269531 8.292969 4.148438c20.882812 10.441406 44.292969 15.660156 67.707031 15.660156s46.824219-5.21875 67.707031-15.660156l8.292969-4.148438v-54.269531h30v60h30v-90h-272v30h60zm122-18.945312c-29.070312 11.753906-62.929688 11.753906-92 0v-35.324219h92zm0 0"/><path d="m150 211h212v30h-212zm0 0"/></svg>