<svg viewBox="0 0 511.998 511" xmlns="http://www.w3.org/2000/svg"><path d="m405.367188 96.0625c-26.902344-58.050781-85.53125-95.5625-149.367188-95.5625s-122.464844 37.511719-149.367188 95.5625l27.140626 12.578125c22.023437-47.519531 70-78.226563 122.226562-78.226563s100.203125 30.707032 122.226562 78.226563zm0 0"/><path d="m256 60.328125c-40.628906 0-77.9375 23.867187-95.050781 60.804687l27.140625 12.578126c12.234375-26.40625 38.890625-43.46875 67.910156-43.46875s55.675781 17.0625 67.910156 43.46875l27.144532-12.578126c-17.117188-36.9375-54.425782-60.804687-95.054688-60.804687zm0 0"/><path d="m256 233.617188 21.152344 21.152343-21.152344 21.152344-21.152344-21.152344zm0 0"/><path d="m121.382812 384.175781 7.625 4.289063c38.6875 21.765625 82.601563 33.265625 126.992188 33.265625s88.300781-11.503907 126.992188-33.265625l7.625-4.289063v-79.175781l60.824218-25.167969v119.488281l-31.53125 63.0625 46.683594 49.144532 45.105469-49.207032-30.34375-62.890624v-131.976563l30.640625-12.679687-211.1875-87.390626c.039062-.777343.0625-1.5625.0625-2.351562 0-24.742188-20.128906-44.875-44.871094-44.875s-44.875 20.132812-44.875 44.875c0 .789062.023438 1.574219.0625 2.351562l-211.1875 87.390626 121.382812 50.226562zm344.820313 83.503907-10.152344-10.6875 10.109375-20.214844 9.785156 20.277344zm-105.503906-101.1875c-65.335938 33.507812-144.0625 33.507812-209.402344 0v-49.113282l104.703125 43.328125 104.699219-43.328125zm-104.699219-216.421876c8.246094 0 14.957031 6.710938 14.957031 14.960938 0 8.246094-6.710937 14.957031-14.957031 14.957031s-14.957031-6.710937-14.957031-14.957031c0-8.25 6.710937-14.960938 14.957031-14.960938zm-33.347656 44.945313c8.21875 9.132813 20.121094 14.886719 33.347656 14.886719s25.128906-5.753906 33.347656-14.886719l144.414063 59.757813-177.761719 73.558593-177.761719-73.558593zm0 0"/></svg>