<svg viewBox="0 1 511 511.99994" xmlns="http://www.w3.org/2000/svg"><path d="m301.605469 77.070312-44.046875-77.070312-43.976563 77.113281-83.742187 18.871094 56.816406 64.550781-7.941406 85.621094 78.945312-34.089844 78.976563 34.011719-8.023438-85.613281 56.753907-64.601563zm.457031 121.472657-44.417969-19.128907-44.40625 19.171876 4.46875-48.160157-31.957031-36.304687 47.328125-10.667969 24.507813-42.976563 24.550781 42.953126 47.335937 10.621093-31.921875 36.335938zm0 0"/><path d="m512.246094 391.058594h-150.925782v-89.953125h-209.894531v59.96875h-150.925781v150.925781h511.746094zm-481.761719 90.957031v-90.957031h120.941406v90.957031zm150.925781 0v-150.925781h149.925782v150.925781zm300.851563 0h-120.941407v-60.96875h120.941407zm0 0"/><path d="m241.378906 361.074219h29.988282v90.957031h-29.988282zm0 0"/></svg>