<svg viewBox="0 -15 512 512" xmlns="http://www.w3.org/2000/svg"><path d="m512 391.15625v-330h-103.109375l-152.890625-61.15625-152.890625 61.15625h-103.109375v330h181v15c0 24.8125-20.1875 45-45 45-14.050781 0-30.90625 0-45 0v30h330v-30h-45c-24.8125 0-45-20.1875-45-45v-15zm-97.214844-165-8.785156 8.785156-8.785156-8.785156 8.785156-8.789062zm-158.785156-193.84375 109.609375 43.84375-109.609375 43.84375-109.609375-43.84375zm-75 90 75 30 75-30v42.324219c-47.539062 23.699219-102.460938 23.699219-150 0zm-77.890625-31.15625 47.890625 19.15625v72.117188l7.644531 4.300781c30.480469 17.144531 63.917969 25.714843 97.355469 25.714843s66.875-8.570312 97.355469-25.714843l7.644531-4.300781v-72.117188l30-12v91.628906l-36.214844 36.214844 51.214844 51.210938 51.214844-51.210938-36.214844-36.214844v-98.785156h61v210h-452v-210zm-73.109375 240h452v30h-452zm286.039062 120h-120.078124c9.4375-12.542969 15.039062-28.128906 15.039062-45v-15h90v15c0 16.871094 5.601562 32.457031 15.039062 45zm0 0"/><path d="m256 54.941406 21.210938 21.210938-21.210938 21.214844-21.214844-21.214844zm0 0"/></svg>