<svg viewBox="1 -1 511.99895 511" xmlns="http://www.w3.org/2000/svg"><path d="m0 106.898438 121.199219 50.152343v78.117188l7.617187 4.285156c.386719.214844.777344.425781 1.164063.640625-24.777344 29.46875-38.671875 67.050781-38.671875 105.898438 0 90.65625 73.75 164.40625 164.402344 164.40625 36.503906 0 71.074218-11.714844 99.972656-33.875l-18.191406-23.722657c-23.632813 18.125-51.914063 27.707031-81.78125 27.707031-74.167969 0-134.511719-60.34375-134.511719-134.515624 0-34.398438 13.324219-67.582032 36.832031-92.457032 26.996094 10.992188 55.761719 17.394532 84.933594 18.839844-35.152344 6.070312-61.980469 36.761719-61.980469 73.617188 0 41.207031 33.523437 74.730468 74.726563 74.730468 22.222656 0 42.199218-9.757812 55.898437-25.207031 10.847656 15.238281 28.636719 25.207031 48.722656 25.207031 32.964844 0 59.785157-26.816406 59.785157-59.78125v-25.953125h-.371094c-2.367188-34.863281-15.90625-68.171875-38.367188-94.855469.410156-.230468.820313-.449218 1.226563-.679687l7.621093-4.285156v-77.996094l60.777344-25.09375v61.089844l-31.433594 66.175781 46.570313 47.390625 45.003906-47.460937-30.246093-66v-73.535157l31.101562-12.839843-256.292969-106.398438zm465.757812 156.796874-10.222656-10.402343 10.171875-21.414063 9.851563 21.484375zm-210.046874 127.136719c-24.722657 0-44.835938-20.117187-44.835938-44.839843 0-24.722657 20.113281-44.835938 44.835938-44.835938 24.726562 0 44.839843 20.113281 44.839843 44.835938 0 24.722656-20.113281 44.839843-44.839843 44.839843zm134.515624-44.839843c0 9.328124-.957031 18.628906-2.847656 27.671874-4.789062 10.136719-15.109375 17.167969-27.046875 17.167969-16.480469 0-29.890625-13.410156-29.890625-29.894531v-14.945312c0-36.859376-26.828125-67.546876-61.980468-73.617188 29.144531-1.445312 57.886718-7.835938 84.863281-18.808594 23.550781 24.898438 36.902343 58.074219 36.902343 92.425782zm-29.894531-128.5c-65.285156 33.484374-143.953125 33.484374-209.242187 0v-48.074219l104.617187 43.289062 104.625-43.195312zm73.519531-110.671876-178.132812 73.542969-177.726562-73.542969 177.726562-73.949218zm0 0"/><path d="m276.851562 106.859375-21.136718 21.132813-21.136719-21.132813 21.136719-21.136719zm0 0"/></svg>