<svg viewBox="0 0 512 512" xmlns="http://www.w3.org/2000/svg"><path d="m494.148438 17.742188-60.011719 15.355468-52.359375-33.097656-3.9375 61.820312-47.660156 39.570313 57.578124 22.847656 22.902344 57.554688 39.523438-47.695313 61.816406-4-33.148438-52.328125zm-58.789063 87.289062-15.539063 18.753906-9.007812-22.628906-22.632812-8.980469 18.738281-15.558593 1.546875-24.300782 20.585937 13.011719 23.59375-6.039063-6.015625 23.597657 13.03125 20.574219zm0 0"/><path d="m336.992188 398.1875 25.207031 25.207031 21.1875-21.183593-275.402344-275.402344-21.1875 21.183594 25.246094 25.246093-112.042969 338.511719zm-211.855469 39.777344-77.839844 26.230468 17.273437-52.1875zm-51.117188-54.503906 16.871094-50.964844 152.84375 65.503906-76.019531 25.617188zm212.289063.191406-185.96875-79.703125 15.113281-45.664063 142.863281 61.226563 55.03125 55.03125zm-85.035156-121.183594-76.371094-32.730469 10.851562-32.789062zm0 0"/><path d="m288.054688 243.328125-21.183594-21.183594 78.558594-78.558593 21.183593 21.183593zm0 0"/><path d="m252.589844 79.972656c-11.167969 2.992188-26.457032 7.089844-37.050782 25.4375-10.589843 18.347656-6.496093 33.636719-3.503906 44.800782 2.6875 10.035156 3.699219 14.777343-.507812 22.070312l25.945312 14.980469c10.589844-18.347657 6.492188-33.636719 3.5-44.804688-2.6875-10.03125-3.699218-14.777343.511719-22.066406 4.210937-7.292969 8.824219-8.789063 18.859375-11.476563 11.164062-2.992187 26.453125-7.089843 37.046875-25.4375 10.59375-18.347656 6.496094-33.636718 3.503906-44.800781-2.6875-10.035156-3.699219-14.777343.511719-22.070312l-25.945312-14.980469c-10.59375 18.347656-6.496094 33.636719-3.503907 44.800781 2.6875 10.035157 3.699219 14.777344-.511719 22.070313-4.210937 7.292968-8.824218 8.789062-18.855468 11.476562zm0 0"/><path d="m463.765625 238.238281c11.167969 2.992188 26.457031 7.089844 44.800781-3.503906l-14.980468-25.945313c-7.289063 4.210938-12.035157 3.199219-22.066407.511719-11.167969-2.992187-26.457031-7.089843-44.804687 3.503907-18.34375 10.589843-22.441406 25.882812-25.433594 37.046874-2.6875 10.035157-4.183594 14.648438-11.476562 18.855469-7.292969 4.210938-12.035157 3.199219-22.070313.511719-11.164063-2.992188-26.457031-7.089844-44.800781 3.503906l14.976562 25.945313c7.296875-4.210938 12.039063-3.199219 22.070313-.511719 5.707031 1.527344 12.484375 3.34375 20.199219 3.34375 7.386718 0 15.628906-1.664062 24.605468-6.847656 18.347656-10.589844 22.445313-25.882813 25.4375-37.046875 2.6875-10.035157 4.179688-14.648438 11.472656-18.855469 7.292969-4.210938 12.039063-3.199219 22.070313-.511719zm0 0"/><path d="m155.972656 69.035156h29.957032v29.960938h-29.957032zm0 0"/><path d="m410.628906 322.695312h29.960938v29.957032h-29.960938zm0 0"/></svg>