<svg viewBox="0 0 512 512" xmlns="http://www.w3.org/2000/svg"><path d="m118.425781 251.359375-27.425781 27.425781v-98.785156h-91v171.285156l61 60v100.714844h150v-168.058594c-52.273438-52.28125-38.808594-38.816406-92.574219-92.582031zm62.574219 230.640625h-90v-83.046875c-15.429688-15.203125-51.3125-50.710937-61-60.238281v-128.714844h31v111.214844l64.394531 64.390625 21.210938-21.210938-49.390625-49.394531 21.210937-21.214844c15.152344 15.152344 43.292969 43.292969 62.574219 62.578125zm0 0"/><path d="m421 180v98.785156l-27.425781-27.425781c-13.050781 13.050781-80.011719 80.019531-92.574219 92.582031v168.058594h150v-100.714844l61-60v-171.285156zm61 158.714844c-9.992188 9.828125-46.582031 46.105468-61 60.316406v82.96875h-90v-125.636719c19.28125-19.285156 47.421875-47.421875 62.574219-62.578125l21.210937 21.214844-49.390625 49.394531 21.210938 21.210938 64.394531-64.390625v-111.214844h31zm0 0"/><path d="m243.722656 93.152344-11.722656-27.613282 27.617188-11.722656 11.71875 27.617188zm0 0"/><path d="m289.164062 266.953125 6.242188-.585937c61.976562-5.820313 108.445312-56.542969 111.1875-116.367188h19.636719l-145.753907-150h-203.382812l64.28125 66.15625-26.878906 66.527344 5.480468 6.851562c38.191407 47.769532 94.589844 74.617188 154.53125 74.617188 8.605469 0 17.289063-.554688 25.996094-1.679688l8.699219-1.125 24.789063-61.359375h42.542968c-2.824218 44.6875-38.066406 82.199219-83.933594 86.507813l-30.980468 2.910156-5.621094-5.621094-51.214844 51.214844 51.214844 51.214844 51.214844-51.214844zm-1.109374-83.339844c-52.957032 4.167969-103.878907-16.40625-139.078126-56.1875l15.253907-37.75 58.617187 60.324219h78.789063zm-52.53125-63.613281-87.449219-90h119.722656l87.453125 90zm11.691406 165 8.785156-8.785156 8.785156 8.785156-8.785156 8.785156zm0 0"/></svg>