<svg viewBox="1 0 511.99999 511" xmlns="http://www.w3.org/2000/svg"><path d="m145.046875 140.863281 74.65625 78.148438 43.425781-98.972657 74.660156 78.152344 43.425782-98.972656 75.542968 79.078125 55.242188-145.5s-510.226562 90.414063-511.9335938 90.710937l101.0195318 117.550782zm320.09375-69.101562-19.539063 51.460937-39.011718-40.835937zm-113.597656 20.472656-23.140625 52.738281-39.78125-41.644531zm-118.082031 20.820313-23.140626 52.738281-39.78125-41.644531zm-176.226563 30.984374 58.144531-10.164062-22.605468 51.515625zm0 0"/><path d="m129.320312 370.144531 43.492188 99.121094 74.65625-78.152344 43.425781 98.972657 74.679688-78.171876 43.816406 99.496094 101.980469-115.351562-511.371094-91.140625 52.515625 144.5625zm288.628907 86.324219-22.582031-51.277344 58.414062 10.75zm-117.671875-19.601562-23.136719-52.738282 62.921875 11.09375zm-118.082032-20.820313-23.140624-52.742187 62.925781 11.097656zm-78.539062-62.488281-39.332031 40.628906-18.449219-50.777344zm0 0"/><path d="m240.765625 256.117188c0 24.792968 20.171875 44.964843 44.964844 44.964843s44.964843-20.171875 44.964843-44.964843c0-24.792969-20.171874-44.964844-44.964843-44.964844s-44.964844 20.171875-44.964844 44.964844zm59.953125 0c0 8.265624-6.722656 14.988281-14.988281 14.988281s-14.988281-6.722657-14.988281-14.988281c0-8.261719 6.722656-14.988282 14.988281-14.988282s14.988281 6.726563 14.988281 14.988282zm0 0"/><path d="m187.023438 256.117188-21.195313 21.199218-21.195313-21.199218 21.195313-21.195313zm0 0"/><path d="m396.859375 316.070312-21.195313 21.195313-21.195312-21.195313 21.195312-21.195312zm0 0"/><path d="m45.917969.5 21.199219 21.195312-21.199219 21.195313-21.195313-21.195313zm0 0"/><path d="m165.824219 25.085938 21.199219 21.195312-21.199219 21.195312-21.195313-21.195312zm0 0"/><path d="m66.121094 256.121094-21.199219 21.195312-21.195313-21.195312 21.195313-21.199219zm0 0"/><path d="m127.074219 465.957031-21.199219 21.195313-21.195312-21.195313 21.195312-21.199219zm0 0"/><path d="m480.578125 301.082031v-29.976562h30.972656v-29.976563h-30.972656v-29.976562h-29.976563v29.976562h-29.976562v29.976563h29.976562v29.976562zm0 0"/></svg>