<svg xmlns="http://www.w3.org/2000/svg" width="150pt" height="150pt" viewBox="0 0 150 150" version="1.1" class="iconadda">
<g>
<g id="Home_House_Property-0"><path style="fill:none;stroke-width:22;stroke-linecap:round;stroke-linejoin:miter;stroke:rgb(0.784314%,0.784314%,0.784314%);stroke-opacity:1;stroke-miterlimit:10;" d="M 168.4375 470.989583 L 494.557292 182.057292 C 497.708333 179.401042 502.291667 179.401042 505.442708 182.057292 L 669.453125 327.317708 " transform="matrix(0.15,0,0,0.15,0,0)" />
</g><g id="Home_House_Property-1"><path style="fill:none;stroke-width:22;stroke-linecap:round;stroke-linejoin:miter;stroke:rgb(0.784314%,0.784314%,0.784314%);stroke-opacity:1;stroke-miterlimit:10;" d="M 831.5625 470.989583 L 712.864583 365.833333 " transform="matrix(0.15,0,0,0.15,0,0)" />
</g><g id="Home_House_Property-2"><path style="fill:none;stroke-width:22;stroke-linecap:round;stroke-linejoin:miter;stroke:rgb(0.784314%,0.784314%,0.784314%);stroke-opacity:1;stroke-miterlimit:10;" d="M 748.671875 470.989583 L 748.671875 798.177083 C 748.671875 810.182292 737.8125 819.921875 724.453125 819.921875 L 275.546875 819.947917 C 262.1875 819.947917 251.328125 810.208333 251.328125 798.203125 L 251.328125 470.989583 " transform="matrix(0.15,0,0,0.15,0,0)" />
</g><g id="Home_House_Property-3"><path style="fill:none;stroke-width:22;stroke-linecap:round;stroke-linejoin:miter;stroke:rgb(0.784314%,0.784314%,0.784314%);stroke-opacity:1;stroke-miterlimit:10;" d="M 403.515625 713.411458 L 403.515625 550.885417 L 596.484375 550.885417 L 596.484375 819.947917 " transform="matrix(0.15,0,0,0.15,0,0)" />
</g><g id="Home_House_Property-4"><path style="fill:none;stroke-width:22;stroke-linecap:round;stroke-linejoin:miter;stroke:rgb(0.784314%,0.784314%,0.784314%);stroke-opacity:1;stroke-miterlimit:10;" d="M 669.375 327.291667 L 669.375 253.098958 C 669.375 244.270833 676.536458 237.109375 685.390625 237.109375 L 696.953125 237.109375 L 696.927083 237.109375 C 701.171875 237.109375 705.234375 238.776042 708.255208 241.796875 C 711.25 244.791667 712.942708 248.854167 712.942708 253.098958 L 712.942708 365.833333 " transform="matrix(0.15,0,0,0.15,0,0)" />
</g></g>
</svg>