<svg xmlns="http://www.w3.org/2000/svg" width="384pt" height="384pt" viewBox="0 0 384 384" version="1.1" class="iconadda">
<g>
<g id="Water_Drop_free_icon_MXlAmCQ-0"><path style=" stroke:none;fill-rule:nonzero;fill:#000001;fill-opacity:1;" d="M 79.34375 155.730469 L 171.554688 22.8125 C 176.207031 16.117188 183.847656 12.125 192 12.125 C 200.152344 12.125 207.789062 16.113281 212.441406 22.808594 L 257.089844 87.226562 C 259 89.980469 262.777344 90.664062 265.527344 88.753906 C 268.28125 86.847656 268.964844 83.070312 267.058594 80.316406 L 222.40625 15.898438 C 215.5 5.945312 204.132812 0 192 0 C 179.867188 0 168.5 5.945312 161.59375 15.902344 L 69.378906 148.820312 C 51.519531 174.5625 42.207031 204.359375 42.445312 234.996094 C 42.667969 263.878906 51.207031 292.085938 67.132812 316.574219 L 67.136719 316.570312 C 68.011719 317.917969 69.386719 318.863281 70.960938 319.199219 C 72.535156 319.53125 74.175781 319.226562 75.523438 318.347656 C 78.332031 316.519531 79.125 312.765625 77.300781 309.957031 C 46.445312 262.53125 47.25 201.992188 79.34375 155.730469 Z M 341.398438 226.949219 C 340.101562 199.21875 330.84375 172.203125 314.621094 148.820312 L 280.484375 99.617188 C 278.558594 96.914062 274.816406 96.261719 272.089844 98.152344 C 269.363281 100.042969 268.664062 103.777344 270.519531 106.527344 L 304.65625 155.730469 C 334.164062 198.265625 337.648438 251.222656 313.980469 297.394531 C 290.523438 343.152344 245.925781 370.988281 194.6875 371.851562 C 192.898438 371.882812 191.101562 371.882812 189.3125 371.851562 C 151.292969 371.210938 116.4375 355.601562 91.167969 327.902344 L 91.164062 327.902344 C 88.90625 325.425781 85.074219 325.25 82.597656 327.507812 C 80.125 329.765625 79.949219 333.597656 82.207031 336.074219 C 109.753906 366.265625 147.714844 383.277344 189.105469 383.976562 L 189.105469 383.972656 C 191.035156 384.007812 192.964844 384.007812 194.890625 383.972656 C 223.152344 383.496094 250.269531 375.3125 273.300781 360.308594 C 294.957031 346.203125 312.753906 326.359375 324.765625 302.925781 C 336.863281 279.328125 342.613281 253.054688 341.394531 226.949219 Z M 341.398438 226.949219 " />
</g><g id="Water_Drop_free_icon_MXlAmCQ-1"><path style=" stroke:none;fill-rule:nonzero;fill:#000001;fill-opacity:1;" d="M 104.382812 165.917969 C 101.632812 164.007812 97.855469 164.691406 95.945312 167.441406 C 83.238281 185.753906 75.988281 206.917969 74.972656 228.644531 C 74.015625 249.09375 78.519531 269.671875 87.996094 288.15625 C 108 327.175781 146.035156 350.910156 189.738281 351.648438 L 189.84375 351.648438 L 189.839844 351.648438 C 193.148438 351.644531 195.847656 348.992188 195.902344 345.6875 C 195.929688 344.078125 195.316406 342.527344 194.199219 341.371094 C 193.082031 340.214844 191.550781 339.550781 189.941406 339.523438 C 150.789062 338.863281 116.710938 317.59375 98.785156 282.625 C 80.695312 247.335938 83.359375 206.863281 105.910156 174.355469 C 107.816406 171.605469 107.136719 167.824219 104.382812 165.917969 Z M 104.382812 165.917969 " />
</g></g>
</svg>